<?xml version="1.0" encoding="UTF-8" standalone="no"?>
<!-- Created with Inkscape (http://www.inkscape.org/) -->

<svg
   xmlns:dc="http://purl.org/dc/elements/1.1/"
   xmlns:cc="http://creativecommons.org/ns#"
   xmlns:rdf="http://www.w3.org/1999/02/22-rdf-syntax-ns#"
   xmlns:svg="http://www.w3.org/2000/svg"
   xmlns="http://www.w3.org/2000/svg"
   xmlns:sodipodi="http://sodipodi.sourceforge.net/DTD/sodipodi-0.dtd"
   xmlns:inkscape="http://www.inkscape.org/namespaces/inkscape"
   width="1000"
   height="521.34619"
   id="svg2"
   version="1.1"
   inkscape:version="0.48.5 r10040"
   sodipodi:docname="A.svg">
  <defs
     id="defs4">
    <clipPath
       clipPathUnits="userSpaceOnUse"
       id="clipPath15271">
      <path
         inkscape:connector-curvature="0"
         d="m 0,1060 1536,0 L 1536,0 0,0 0,1060 z"
         id="path15273" />
    </clipPath>
  </defs>
  <sodipodi:namedview
     id="base"
     pagecolor="#ffffff"
     bordercolor="#666666"
     borderopacity="1.0"
     inkscape:pageopacity="0.0"
     inkscape:pageshadow="2"
     inkscape:zoom="0.39878337"
     inkscape:cx="875.64212"
     inkscape:cy="219.81489"
     inkscape:document-units="px"
     inkscape:current-layer="layer1"
     showgrid="false"
     fit-margin-left="0.5"
     fit-margin-bottom="0.5"
     fit-margin-top="0.5"
     fit-margin-right="0.5"
     inkscape:window-width="1216"
     inkscape:window-height="1022"
     inkscape:window-x="698"
     inkscape:window-y="-12"
     inkscape:window-maximized="0" />
  <metadata
     id="metadata7">
    <rdf:RDF>
      <cc:Work
         rdf:about="">
        <dc:format>image/svg+xml</dc:format>
        <dc:type
           rdf:resource="http://purl.org/dc/dcmitype/StillImage" />
        <dc:title></dc:title>
      </cc:Work>
    </rdf:RDF>
  </metadata>
  <g
     inkscape:label="Layer 1"
     inkscape:groupmode="layer"
     id="layer1"
     transform="translate(-383.8478,100.39273)">
    <g
       transform="matrix(5.1269283,0,0,-5.1269283,-301.29147,4991.8283)"
       id="g15267"
       style="fill:#000000">
      <g
         id="g15269"
         clip-path="url(#clipPath15271)"
         style="fill:#000000">
        <g
           id="g15275"
           transform="translate(229.0664,970.1846)"
           style="fill:#000000">
          <path
             inkscape:connector-curvature="0"
             d="m 0,0 c 0.292,-0.058 0.928,-0.063 1.28,0.398 0.336,0.444 0.997,0.75 1.595,1.269 0.601,0.519 1.89,1.815 2.436,3.19 0.543,1.375 1.394,2.467 1.64,2.725 C 7.2,7.84 6.938,7.597 6.557,7.399 6.17,7.201 6.651,7.573 6.56,7.643 6.508,7.687 5.72,7.131 5.317,6.706 4.914,6.28 0.875,2.435 -0.427,1.863 c 0,0 -0.295,-0.263 -0.678,-0.127 C -1.489,1.874 -1.442,1.473 -1.515,1.259 -1.59,1.048 -0.292,0.056 0,0"
             style="fill:#000000;fill-opacity:1;fill-rule:nonzero;stroke:none"
             id="path15277" />
        </g>
        <g
           id="g15279"
           transform="translate(159.1943,965.4077)"
           style="fill:#000000">
          <path
             inkscape:connector-curvature="0"
             d="m 0,0 c -0.331,0.001 -2.506,0.01 -3.418,0.006 -0.913,-0.004 -3.728,0.164 -4.504,-0.309 0,0 -0.843,-0.379 -1.05,-1.027 -0.211,-0.648 -0.254,-0.918 -0.052,-1.508 0.198,-0.592 -0.395,-1.647 -0.665,-2.238 -0.271,-0.593 -3.524,-5.032 -4.669,-6.42 -1.142,-1.384 -2.926,-3.896 -5.278,-4.673 0,0 -2.995,11.739 12.351,25.717 0,0 0.514,0.501 0.777,0.469 0.265,-0.035 0.65,-0.31 1.097,-0.487 0.452,-0.179 1.542,-0.937 2.473,-0.229 0.933,0.706 1.499,2.633 0.329,4.068 -1.171,1.433 -3.239,1.84 -4.757,2.397 -1.519,0.553 -3.875,0.262 -5.754,-0.086 -1.878,-0.348 -4.437,-3.294 -6.898,-7.673 -2.459,-4.375 -2.154,-4.9 -2.726,-6.527 -0.569,-1.628 -4.601,-10.931 -1.645,-17.667 2.957,-6.732 5.061,-4.626 7.66,-3.927 2.604,0.698 5.327,3.599 7.042,6.114 0,0 -0.194,-2.492 -0.685,-5.462 -0.494,-2.971 -1.15,-6.932 -0.816,-9.494 0.338,-2.556 0.636,-4.54 0.984,-4.608 0.346,-0.066 1.165,0.432 1.889,2.526 0.722,2.096 0.955,2.017 1.142,3.5 0.193,1.483 0.352,2.209 -0.138,3.021 0,0 -0.11,2.582 0.668,4.724 0,0 0.623,1.484 0.88,2.717 0.259,1.237 0.881,1.715 1.23,3.416 0,0 0.689,3.26 1.025,4.696 0.334,1.436 0.163,1.632 1.33,3.269 1.167,1.635 1.314,1.819 1.7,3.068 0,0 0.264,0.769 0.388,1.253 0.123,0.482 0.181,0.767 0.352,1.008 C 0.435,-0.124 0.335,-0.001 0,0"
             style="fill:#000000;fill-opacity:1;fill-rule:nonzero;stroke:none"
             id="path15281" />
        </g>
        <g
           id="g15283"
           transform="translate(250.666,962.1343)"
           style="fill:#000000">
          <path
             inkscape:connector-curvature="0"
             d="M 0,0 C 0,0 -1.325,2.238 -0.824,3.056 -0.328,3.873 0.707,3.683 1.069,3.078 1.432,2.471 1.483,1.693 0,0 m -50.553,-2.714 c 1.194,1.965 2.646,4.169 2.646,4.169 0,0 0.943,-0.044 1.411,0.146 0.469,0.191 1.309,0.652 1.255,0.197 -0.055,-0.457 -2.695,-4.921 -3.786,-6.282 -1.091,-1.363 -2.744,-2.665 -2.744,-2.665 0,0 0.025,2.466 1.218,4.435 m -32.792,5.878 c 0,0 -0.847,-2.359 -2.729,-4.969 -1.886,-2.612 -3.824,-4.092 -3.902,-2.215 -0.08,1.876 1.298,4.685 2.024,5.59 0.726,0.904 3.515,4.751 5.435,4.929 0,0 -0.645,-2.127 -0.828,-3.335 m 70.31,-5.031 c 0.135,0.828 0.244,1.442 0.8,1.307 0.553,-0.136 0.498,-1.307 0.19,-2.112 -0.49,-1.273 -1.784,-2.705 -1.784,-2.705 0,0 0.655,2.684 0.794,3.51 M 10.04,-14.034 C 9.778,-11.431 6.991,-8.119 4.534,-6.181 1.777,-4.01 0.455,-0.895 0.455,-0.895 0.868,-0.442 2.935,1.835 3.22,3.169 3.507,4.502 2.627,4.739 1.816,4.96 1.007,5.184 -0.032,5.222 -0.435,5.353 -0.836,5.485 -0.836,5.126 -1.736,4.446 -2.632,3.767 -2.896,4.011 -3.073,1.989 c -0.176,-2.024 1.151,-4.427 1.151,-4.427 -0.808,-1.104 -3.307,-4.02 -6.125,-6.959 -2.819,-2.939 -4.792,-4.349 -4.792,-4.349 l -0.091,-0.045 c -0.942,-0.606 -0.947,0.312 -1.037,1.068 -0.092,0.758 -0.041,1.572 -0.24,2.392 -0.199,0.822 0.119,3.124 0.119,3.124 0,0 0.261,0.295 0.4,0.522 0.136,0.23 0.538,0.59 0.642,0.757 0.106,0.165 0.121,0.136 0.052,0 -0.074,-0.144 -0.102,-0.182 -0.206,-0.328 -0.189,-0.273 -0.327,-0.58 -0.327,-0.58 0,0 0.179,0.151 0.407,0.398 0.225,0.245 0.306,0.399 0.436,0.551 0.132,0.157 0.107,0.101 0.072,-0.043 -0.036,-0.146 -0.258,-0.388 -0.366,-0.542 -0.154,-0.22 -0.491,-0.529 -0.491,-0.529 0,0 0.435,0.197 0.551,0.349 0.077,0.1 2.411,2.665 3.163,5.387 0.748,2.725 -1.055,2.96 -1.546,3.006 -0.491,0.04 -0.545,0.176 -1.892,0.08 -1.35,-0.098 -2.058,-2.08 -3.479,-5.462 -1.424,-3.384 -1.319,-6.308 -1.319,-6.308 -0.125,-0.157 -0.242,-0.299 -0.362,-0.446 0.019,0.011 0.049,0.02 0.072,0.032 -0.014,-0.016 -0.02,-0.036 -0.031,-0.049 0.018,0.009 0.035,0.009 0.047,0.012 0.14,0.164 0.286,0.311 0.286,0.311 -0.024,-0.167 -0.071,-0.225 -0.194,-0.389 -0.12,-0.167 -0.129,-0.188 -0.273,-0.356 -0.148,-0.169 -0.319,-0.367 -0.319,-0.367 0,0 0.002,-0.089 -0.005,0.094 -0.006,0.117 0.039,0.14 0.175,0.302 0.009,0.033 0.025,0.065 0.044,0.094 -0.023,-0.015 -0.047,-0.023 -0.067,-0.043 -0.001,0.004 0.005,0.029 0.008,0.031 0,0 -0.007,-10e-4 -0.014,-0.004 -3.575,-4.286 -6.159,-5.415 -6.596,-5.523 -0.465,-0.115 -0.374,0.79 -0.376,1.235 -0.004,0.446 0.411,1.546 0.51,2.119 0.098,0.574 0.325,2.294 0.925,3.25 0.604,0.954 0.775,1.571 1.341,3.093 0.565,1.518 2.566,8.742 2.617,9.108 0.051,0.368 -0.109,1.047 -0.32,1.358 -0.217,0.316 -0.37,0.675 -0.737,0.938 -0.366,0.261 -0.736,0.308 -1.663,0.43 -0.926,0.123 -0.953,0.077 -1.635,0.022 -0.682,-0.054 -0.674,-0.788 -0.674,-0.788 -0.328,-0.337 -0.437,-0.269 -0.275,-2.089 0.156,-1.821 -0.522,-4.078 -2.857,-8.697 -2.334,-4.62 -4.718,-7.452 -4.718,-7.452 0,0 -0.3,3.045 -0.223,4.181 0.074,1.137 0.591,3.174 0.259,5.32 -0.33,2.146 -2.487,3.158 -4.096,4.214 -1.608,1.055 -0.421,2.732 -0.211,3.443 0.206,0.711 -0.427,0.751 -1.108,0.696 -0.679,-0.055 -0.626,-0.056 -0.942,-0.215 -0.314,-0.158 0.316,0.159 -0.358,-0.996 -0.672,-1.154 0.123,-3.082 0.123,-3.082 0,0 -1.195,-1.887 -2.232,-3.566 -1.037,-1.681 -4.818,-7.611 -5.648,-8.505 -0.833,-0.892 -2.525,-2.267 -3.442,-1.378 -0.922,0.888 -0.704,3.816 -0.704,3.816 0,0 1.092,1.523 2.182,2.677 1.089,1.157 1.611,2.103 1.611,2.103 0,0 0.483,0.021 3.169,3.364 2.688,3.338 2.325,4.767 2.271,5.759 -0.056,0.995 -1.212,1.614 -2.525,2.288 -1.307,0.674 -1.807,0.458 -2.194,0.405 -0.391,-0.052 -0.474,0.321 -0.735,0.099 -0.262,-0.215 -0.417,-0.312 -0.78,-0.471 -0.363,-0.161 -0.834,-0.844 -1.253,-0.95 -0.421,-0.106 -0.98,-0.192 -0.621,-0.733 0.36,-0.54 0.005,-0.889 0.005,-0.889 -5.373,-7.291 -4.261,-14.926 -4.261,-14.926 -0.64,-0.524 -2.295,-1.798 -3.044,-2.294 -0.16,-0.104 -0.76,-0.396 -1.647,-0.285 -1.04,0.132 -3.037,0.641 -4.244,2.48 -1.479,2.251 -1.151,9.968 -0.449,14.795 0.71,4.829 3.879,18.04 4.287,19.596 0.408,1.558 0.196,2.904 0.196,2.904 0.078,0.851 0.783,2.659 0.98,2.901 0.195,0.241 0.241,0.38 -0.088,0.483 -0.329,0.109 -0.511,0.477 -0.687,0.717 -0.175,0.242 -0.912,0.159 -1.148,0.072 -0.238,-0.088 -1.18,0.426 -1.809,0.578 -0.626,0.151 -1.151,0.172 -1.307,-0.005 -0.153,-0.178 -0.308,-0.526 -0.399,-0.426 -0.092,0.1 -0.259,0.414 -0.333,0.211 -0.074,-0.204 0.041,-0.213 -0.04,-0.459 -0.081,-0.247 -0.423,-0.589 -0.579,-0.538 -0.158,0.053 -0.117,0.442 -0.206,0.089 -0.083,-0.352 -0.107,-0.298 -0.213,-0.406 -0.106,-0.107 -0.194,0.076 -0.26,-0.052 -0.063,-0.127 -0.049,-0.26 -0.208,-0.424 -0.159,-0.17 0.002,-0.576 0.002,-0.576 0.079,-1.024 -0.695,-2.585 -1.821,-6.663 -1.126,-4.08 -2.224,-9.953 -2.224,-9.953 -1.04,-5.056 -3.118,-9.489 -3.685,-10.887 -0.568,-1.397 -1.732,-3.425 -2.391,-4.426 -0.663,-1.002 -0.886,-2.478 -1.756,-2.782 -0.868,-0.309 -1.346,-1.224 -1.346,-1.224 0,0 -0.191,3.404 0.275,6.557 0.467,3.158 1.315,5.782 1.618,6.617 0.303,0.833 0.55,1.8 0.706,2.294 0.157,0.494 0.314,0.753 0.052,0.841 -0.263,0.088 -1.23,0.486 -1.328,0.606 -0.096,0.121 -0.429,0.292 -0.789,0.295 -0.359,0.004 -0.822,0.208 -1.132,0.254 -0.306,0.046 -0.472,0.162 -0.855,0.355 -0.265,0.135 -0.441,0.126 -0.441,0.126 0,0 -0.064,-0.01 -0.142,-0.163 -0.077,-0.156 -0.523,-1.076 -0.729,-1.54 0,0 -0.884,-0.048 -1.664,-0.619 -0.78,-0.569 -2.604,-1.536 -4.203,-3.951 -1.594,-2.415 -2.173,-3.271 -2.543,-4.383 -0.371,-1.114 -0.645,-1.873 -0.998,-3.539 -0.357,-1.665 -0.288,-2.801 -0.015,-3.216 0.273,-0.413 0.331,-0.646 0.774,-0.98 0.446,-0.332 0.85,-0.766 1.349,-0.408 0.501,0.358 1.723,1.547 2.45,1.857 0.728,0.316 1.625,1.955 2.558,2.322 0,0 0.081,-1.861 -0.006,-3.73 -0.084,-1.87 -0.244,-3.165 0.377,-3.707 0.62,-0.543 1.439,-1.82 2.025,-1.747 0.585,0.069 0.835,0.497 1.342,0.311 0.511,-0.187 0.953,-0.141 2.004,1.616 1.05,1.757 5.13,8.33 6.862,13.1 0,0 -0.04,-10.733 3.757,-14.6 3.797,-3.867 5.973,-4.768 10.988,-1.404 0,0 0.16,-0.211 0.369,-0.102 0.208,0.106 0.511,0.911 2.081,1.739 0,0 0.705,-2.629 2.367,-3.557 1.663,-0.925 3.315,-0.959 4.333,-0.235 0.957,0.682 2.226,2.227 3.86,4.472 1.123,1.544 1.173,2.99 2.379,4.826 1.202,1.836 0.924,2.568 1.338,3.409 0.415,0.836 1.293,2.775 1.293,2.775 0,0 0.965,-1.009 1.734,-1.454 0.769,-0.445 0.606,-2.58 0.23,-3.918 -0.376,-1.343 -0.593,-6.223 1.145,-8.625 1.736,-2.402 3.418,-2.231 4.508,-1.124 1.087,1.103 1.85,2.684 2.483,4.248 0.022,-9.482 4.506,-6.826 6.251,-5.458 1.744,1.368 4.798,5.23 4.798,5.23 0.623,-4.572 3.243,-5.29 4.687,-5.135 1.448,0.152 2.663,2.578 3.511,3.887 0.845,1.308 2.951,3.571 3.487,4.115 0.541,0.543 1.026,1.398 1.563,2.213 0.533,0.811 3.127,3.66 3.127,3.66 0,0 0.875,-1.289 1.273,-1.883 0.398,-0.594 2.349,-2.329 3.252,-3.268 0.906,-0.939 1.636,-2.553 1.636,-2.553 0,0 -0.408,-0.183 -0.626,-0.139 -0.222,0.043 -0.565,0.219 -0.814,0.443 -0.248,0.227 -0.767,0.177 -0.947,0.087 -0.176,-0.09 -0.496,0.088 -0.673,0.219 -0.181,0.133 -0.317,0.316 -0.589,0.315 -0.273,-0.003 -0.36,0.179 -0.483,0.278 -0.125,0.101 -0.026,0.448 -0.107,0.347 -0.081,-0.096 -0.176,-0.227 -0.357,-0.228 -0.181,-0.002 -0.316,-0.137 -0.447,-0.225 -0.134,-0.088 -0.183,0.043 -0.349,0.192 -0.16,0.151 -0.149,0.165 -0.26,-0.096 -0.109,-0.262 -0.146,0.153 -0.206,0.235 -0.063,0.081 0.003,-0.201 -0.175,-0.112 -0.181,0.088 -0.271,0.224 -0.271,0.224 0.202,-5.444 4.426,-7.258 6.387,-7.832 1.376,-0.403 3.084,-0.292 4.167,0.739 l 0.005,-0.001 c 0.148,-0.132 -0.114,-0.613 0.03,-0.496 0.143,0.119 0.325,0.733 0.454,0.625 0.13,-0.107 -0.131,-1.023 -0.131,-1.023 0.351,0.498 0.371,1.484 0.37,1.67 -10e-4,0.187 0.135,0.088 0.273,-0.091 0.14,-0.179 0.164,-0.13 0.164,-0.13 0.421,0.495 -0.156,2.188 -0.156,2.188 l -0.002,-0.006 z"
             style="fill:#000000;fill-opacity:1;fill-rule:nonzero;stroke:none"
             id="path15285" />
        </g>
        <g
           id="g15287"
           transform="translate(211.4521,896.3799)"
           style="fill:#000000">
          <path
             inkscape:connector-curvature="0"
             d="m 0,0 -0.257,0 c 0,0 -0.102,-0.36 0,-0.668 0.104,-0.307 -0.155,-0.715 -0.155,-1.024 0,-0.309 0.09,-0.524 0.09,-0.524 0,0 0.016,0.316 0.169,0.625 C 0,-1.282 0.103,-1.232 0.05,-0.719 0,-0.204 0.256,0 0,0"
             style="fill:#000000;fill-opacity:1;fill-rule:nonzero;stroke:none"
             id="path15289" />
        </g>
        <g
           id="g15291"
           transform="translate(212.3511,899.2251)"
           style="fill:#000000">
          <path
             inkscape:connector-curvature="0"
             d="m 0,0 c -0.001,0.012 0.004,0.025 0.001,0.038 -0.007,0.041 -0.024,0.082 -0.025,0.125 -0.002,0.047 -0.009,0.093 -0.009,0.141 0,0.069 -0.001,0.135 0,0.203 0,0.021 -0.003,0.048 -0.015,0.067 C -0.062,0.597 -0.084,0.609 -0.099,0.58 -0.104,0.571 -0.104,0.561 -0.107,0.551 -0.111,0.537 -0.12,0.53 -0.13,0.52 -0.154,0.494 -0.17,0.464 -0.196,0.441 -0.222,0.417 -0.229,0.39 -0.238,0.356 -0.256,0.271 -0.252,0.182 -0.223,0.1 c 0.008,-0.021 0.017,-0.04 0.026,-0.06 0.012,-0.027 0.016,-0.055 0.025,-0.082 0.006,-0.023 0.016,-0.046 0.021,-0.069 0.003,-0.018 0.002,-0.039 0.002,-0.058 0,-0.026 -0.005,-0.088 0.023,-0.101 0.014,-0.005 0.038,-0.01 0.053,-0.008 0.031,0.003 0.048,0.018 0.063,0.043 0.026,0.038 0.028,0.084 0.028,0.128 0,0.026 -0.004,0.048 -0.009,0.073 C 0.007,-0.022 0.002,-0.012 0,0"
             style="fill:#000000;fill-opacity:1;fill-rule:nonzero;stroke:none"
             id="path15293" />
        </g>
        <g
           id="g15295"
           transform="translate(211.8604,899.8516)"
           style="fill:#000000">
          <path
             inkscape:connector-curvature="0"
             d="m 0,0 c -0.082,-0.009 -0.119,-0.056 -0.129,-0.133 -0.006,-0.046 -0.009,-0.093 -0.01,-0.138 0,-0.054 -0.01,-0.123 0.024,-0.169 0.011,-0.016 0.046,-0.033 0.069,-0.025 0.024,0.008 0.044,0.044 0.052,0.066 0.009,0.024 0.011,0.05 0.02,0.073 0.009,0.021 0.026,0.039 0.042,0.054 0.003,0.004 0.006,0.009 0.026,0.016 0.008,0.006 0.021,0.015 0.027,0.023 0.012,0.016 0.019,0.04 0.025,0.059 0.013,0.045 0.015,0.127 -0.025,0.161 C 0.091,0.013 0.036,0.004 0,0"
             style="fill:#000000;fill-opacity:1;fill-rule:nonzero;stroke:none"
             id="path15297" />
        </g>
        <g
           id="g15299"
           transform="translate(212.1621,897.27)"
           style="fill:#000000">
          <path
             inkscape:connector-curvature="0"
             d="m 0,0 c -0.041,-0.067 -0.076,-0.139 -0.097,-0.214 -0.005,-0.017 -0.015,-0.025 -0.015,-0.044 -0.002,-0.02 -0.002,-0.037 -0.01,-0.056 0,-0.006 -0.002,-0.012 -0.004,-0.017 -0.005,-0.01 0.001,-0.023 -0.003,-0.034 -0.003,-0.013 -0.009,-0.016 -0.008,-0.032 0,-0.017 -0.006,-0.02 -0.01,-0.034 -0.001,-0.011 0.001,-0.029 0.001,-0.042 l 0,-0.042 c 0,-0.02 -0.002,-0.022 0.016,-0.025 0.03,-0.004 0.05,0.013 0.066,0.036 0.015,0.022 0.024,0.062 0.027,0.087 0.002,0.016 -0.002,0.03 0.002,0.044 0.003,0.005 0.005,0.011 0.006,0.017 0.004,0.011 -0.002,0.021 0.003,0.032 0.006,0.022 0.026,0.041 0.036,0.061 0.015,0.023 0.034,0.039 0.043,0.065 0.008,0.03 0.01,0.053 0.01,0.084 l 0,0.042 c 0,0.016 0.006,0.026 0.009,0.042 C 0.08,0.016 0.024,0.04 0,0"
             style="fill:#000000;fill-opacity:1;fill-rule:nonzero;stroke:none"
             id="path15301" />
        </g>
        <g
           id="g15303"
           transform="translate(177.2739,907.9756)"
           style="fill:#000000">
          <path
             inkscape:connector-curvature="0"
             d="m 0,0 c -1.504,-0.655 -2.459,-0.935 -2.203,1.636 0,0 1.459,14.158 7.13,24.683 0.87,1.616 0.821,3.438 0.717,4.825 -0.103,1.385 -1.862,2.436 -2.358,2.615 -0.351,0.127 -1.441,0.315 -2.041,0.382 -0.52,0.057 -1.261,-0.008 -1.379,0.086 -0.119,0.097 -0.428,0.109 -0.542,-0.083 -0.116,-0.191 -0.348,-0.384 -0.504,-0.436 -0.153,-0.051 -0.499,-0.117 -0.663,-0.41 -0.265,-0.475 -0.618,-1.541 -3.337,-9.08 -2.717,-7.541 -4.78,-15.415 -4.515,-20.37 0.265,-4.954 3.315,-7.687 6.617,-8.57 3.302,-0.881 7.852,3.643 10.418,6.005 2.565,2.36 4.256,3.898 4.256,3.898 0,0 -3.95,-1.542 -7.028,-3.027 C 4.568,2.154 1.507,0.655 0,0"
             style="fill:#000000;fill-opacity:1;fill-rule:nonzero;stroke:none"
             id="path15305" />
        </g>
        <g
           id="g15307"
           transform="translate(204.4702,901.3203)"
           style="fill:#000000">
          <path
             inkscape:connector-curvature="0"
             d="m 0,0 c 0.028,0.255 0.134,0.364 0.108,0.646 -0.024,0.281 -0.02,0.644 -0.125,0.642 0,0 -0.122,-0.069 -0.112,-0.266 C -0.119,0.825 -0.07,0.75 -0.07,0.57 -0.07,0.39 -0.057,-0.533 0,0"
             style="fill:#000000;fill-opacity:1;fill-rule:nonzero;stroke:none"
             id="path15309" />
        </g>
        <g
           id="g15311"
           transform="translate(274.4551,921.8281)"
           style="fill:#000000">
          <path
             inkscape:connector-curvature="0"
             d="m 0,0 c -3.882,-6.419 -6.103,-8.877 -6.103,-8.877 0,0 0.1,2.619 0.1,4.002 0,1.382 0.053,1.898 0.566,3.489 0.513,1.591 1.024,3.436 1.435,5.645 0.411,2.208 0.823,3.899 1.847,7.079 0.152,0.468 0.321,1.05 0.502,1.7 1.847,0.235 3.612,0.568 4.301,0.746 0.851,0.221 3.081,0.797 4.725,1.197 C 5.223,9.841 2.353,3.888 0,0 m 26.167,7.337 c 0.98,3.208 4.002,7.026 4.002,7.026 0.464,0.717 1.057,1.118 1.231,0.926 0.177,-0.19 1.243,-0.371 1.642,-0.718 0.4,-0.349 0.506,-0.411 -0.307,-1.848 -0.813,-1.438 -3.542,-5.13 -3.542,-5.13 -0.774,-0.894 -2.124,-2.357 -3.763,-4.096 0.077,1.342 0.341,2.544 0.737,3.84 M -31.34,-14.842 c -0.482,-3.3 -3.963,-10.375 -6.308,-9.081 -2.347,1.297 -0.676,8.532 6.053,13.34 0.291,0.209 0.57,0.408 0.841,0.604 -0.21,-1.92 -0.421,-3.743 -0.586,-4.863 M -51.508,2.411 c -0.09,-0.355 -0.174,-0.731 -0.251,-1.118 -1.318,-1.425 -2.397,-2.255 -2.953,-2.64 -0.669,-0.462 -0.621,0.355 -0.339,1.398 0.321,1.183 0.889,3.04 2.565,4.515 0.976,0.858 1.711,1.181 2.156,1.303 -0.449,-1.086 -0.894,-2.302 -1.178,-3.458 m 32.116,1.129 c 1.99,3.502 3.908,4.024 4.127,3.144 0.267,-1.06 -3.718,-5.247 -4.947,-6.633 -0.24,-0.267 -0.575,-0.577 -0.962,-0.904 0.305,1.334 0.851,2.752 1.782,4.393 m 42.028,-7.918 c 1.948,-8.182 7.784,-12.02 12.025,-13.57 4.981,-1.82 11.955,0.418 13.074,1.057 1.12,0.638 1.401,0.898 0.381,0.891 -1.022,-0.011 -6.639,-1.054 -8.723,-0.821 -2.085,0.232 -3.197,0.257 -5.68,2.062 -2.483,1.804 -4.926,4.518 -7.306,9.896 -0.308,0.692 -0.705,2.123 -0.912,3.299 l 0.34,0.327 c 0.506,0.498 0.922,0.906 1.204,1.186 1.509,1.494 4.544,3.536 6.774,5.643 2.23,2.107 4.497,4.363 5.127,5.234 0.629,0.872 1.901,2.82 2.259,3.18 0.358,0.36 0.204,0.666 0.155,1.026 -0.048,0.359 0.049,0.666 -0.155,0.872 -0.206,0.206 0.204,0.616 -0.103,1.387 -0.309,0.77 -1.437,0.872 -2.135,0.874 -0.695,0.003 -2.839,0.46 -3.403,0.561 -0.567,0.101 -1.491,0.205 -1.798,0.256 -0.307,0.052 -0.307,0.257 -0.307,0.257 -0.209,-0.252 -1.284,-0.05 -1.951,-0.05 -0.668,0 -1.508,0.114 -1.898,-0.463 C 29.215,18.148 28.167,17.291 27.083,16.17 25.997,15.05 25.5,13.596 25.5,13.596 24.577,12.004 21.462,8.197 21.956,0.396 c 0.011,-0.172 0.026,-0.34 0.039,-0.51 -4.891,-5.101 -10.446,-10.749 -11.991,-12.199 -2.516,-2.361 -2.979,-3.122 -3.59,-2.412 -0.61,0.709 2.002,10.209 3.025,13.544 1.027,3.334 2.261,8.364 3.697,14.316 0.237,0.98 0.554,2.166 0.914,3.458 2.346,0.577 5.198,1.282 7.806,1.927 5.795,1.437 18.728,5.285 22.166,6.363 0,0 4.359,1.332 5.693,1.95 1.334,0.616 2.827,1.076 3.338,1.281 0,0 0.309,0.096 0.455,0.198 0.146,0.101 0.014,0.208 0.114,0.248 0.098,0.038 0.409,0.164 0.495,0.275 0.084,0.109 -0.222,-0.054 -0.356,-0.103 -0.134,-0.05 -0.302,0.052 -0.351,0.153 -0.051,0.1 -0.046,0.154 -0.195,0.102 -0.148,-0.051 -0.986,-0.039 -1.262,-0.002 0,0 -1.928,-0.255 -5.315,-0.871 0,0 -27.129,-5.704 -29.346,-6.207 0,0 -0.707,-0.16 -1.816,-0.41 1.648,5.497 3.411,10.961 3.411,10.961 0.36,0.623 0.867,2.122 0.967,2.467 0.104,0.345 0.157,0.679 0,0.886 -0.154,0.204 -0.15,0.512 -0.286,0.616 -0.132,0.103 -0.604,0.195 -0.995,0.203 -0.388,0.011 -0.86,0.183 -1.18,0.106 -0.319,-0.077 -0.68,-0.102 -1.129,-0.209 -0.448,-0.106 -0.923,-0.05 -1.159,-0.049 -0.235,0.002 -0.867,0.207 -1.097,-0.001 -0.23,-0.209 -0.122,-0.4 -0.412,-0.462 -0.292,-0.059 -0.305,-0.204 -0.305,-0.204 -0.134,-0.748 -0.208,-1.18 -0.208,-1.18 0,0 0.136,-1.218 -0.51,-3.077 -0.644,-1.855 -1.13,-3.643 -2.259,-8.365 C 10.115,22.366 9.791,21.317 9.37,20.117 7.404,19.675 5.459,19.24 4.054,18.931 2.993,18.697 1.418,18.409 -0.378,18.107 c 0.672,2.869 1.27,5.694 1.458,6.929 0.359,2.36 0.012,4.586 0.012,4.586 -0.347,2.016 -0.504,3.859 -1.258,4.834 -0.753,0.974 -1.539,1.473 -2.251,1.508 -0.713,0.035 -1.174,0 -1.618,0 -0.441,0 -0.172,-0.614 -0.172,-0.614 -0.709,-0.075 -1.106,-0.154 -0.922,-1.796 0.18,-1.642 -0.92,-9.086 -2.36,-15.391 -0.096,-0.416 -0.189,-0.812 -0.279,-1.196 -3.172,-0.45 -5.916,-0.784 -6.852,-0.806 -2.206,-0.051 -2.46,0.051 -2.976,0.205 0,0 -0.863,0.322 -0.925,0.051 -0.061,-0.27 -0.112,-0.594 -0.038,-0.658 0.075,-0.063 0.165,-0.399 0.075,-0.46 -0.089,-0.061 -0.295,-0.165 -0.139,-0.421 0.155,-0.255 0.789,-0.565 1.284,-0.769 0.494,-0.202 1.098,-0.473 1.42,-0.723 0,0 0.596,-0.518 2.361,-0.411 0,0 2.433,-0.013 4.764,-0.068 -0.69,-2.54 -1.107,-3.672 -1.107,-3.672 0,0 -0.768,-1.796 -3.849,-8.261 -3.076,-6.466 -5.677,-9.256 -6.812,-9.034 -0.732,0.144 -0.912,1.417 -0.948,2.309 0.015,0.175 0.022,0.359 0.015,0.563 -0.042,0.945 -0.037,1.857 0.062,2.784 2.788,2.603 6.051,6.231 7.351,7.828 1.798,2.207 -0.089,3.127 -0.949,3.091 -1.232,-0.05 -2.456,-0.308 -5.08,-3.23 -1.732,-1.932 -2.794,-5.187 -3.293,-7.85 -1.056,-0.758 -1.937,-1.341 -1.937,-1.341 -0.251,-0.149 -0.984,-0.589 -1.727,-1.148 0.274,1.326 0.653,2.333 0.86,3.401 0.438,2.26 0.422,2.372 0.422,2.372 0.082,0.411 0.135,0.668 0.135,0.668 0.408,2.517 -0.407,3.64 -0.925,3.744 -0.518,0.104 -0.563,0.41 -1.229,0.768 -0.668,0.36 -0.771,0.155 -1.183,-0.05 -0.409,-0.205 -0.409,-0.051 -0.519,0.029 -0.109,0.081 -0.145,0.021 -1.069,-1.004 -0.925,-1.025 -2.207,-2.514 -3.182,-3.797 -0.974,-1.284 -3.197,-2.917 -4.156,-1.283 -0.958,1.634 -0.404,4.438 0.052,5.028 0.454,0.59 0.46,0.822 0.356,0.923 -0.103,0.099 -0.46,0.257 -0.922,0.053 -0.462,-0.206 -0.515,-0.361 -0.769,-0.773 -0.254,-0.412 -0.511,-0.934 -1.898,-2.1 -1.388,-1.166 -5.937,-6.987 -6.31,-7.441 -0.376,-0.454 -0.411,-0.359 -0.514,-0.307 -0.102,0.052 0.196,2.133 0.309,3.185 0.11,1.052 0.721,3.629 1.385,4.921 0.665,1.291 1.333,2.719 1.333,2.719 0.205,0.463 0.514,1.796 0.563,1.951 0.051,0.153 0.083,0.635 0,0.717 -0.082,0.083 -0.869,0.103 -1.435,0.205 -0.569,0.102 -1.231,0.153 -1.56,0.153 -0.331,0 -1.364,0.31 -1.364,0.31 0,0 -0.458,-0.838 -1.023,-2.062 -0.575,-0.096 -1.412,-0.266 -2,-0.51 -0.979,-0.405 -2.918,-1.53 -4.264,-4.766 -1.343,-3.237 -0.496,-4.34 -0.195,-4.473 0.3,-0.134 0.759,-0.81 1.582,-0.349 0.63,0.354 1.686,1.005 2.382,1.501 -0.34,-2.401 -0.502,-4.703 -0.435,-5.503 0.105,-1.232 -0.486,-1.433 0.873,-2.567 1.36,-1.134 1.279,-1.062 1.745,-0.871 0.466,0.191 0.75,-0.095 1.068,-0.253 0.319,-0.158 1.034,-0.669 1.291,-0.208 0.259,0.461 0.619,1.284 1.542,2.515 0.923,1.23 4.722,7.591 6.617,9.746 0,0 -0.314,-3.559 2.721,-3.952 3.035,-0.391 3.853,2.291 6.822,3.235 0,0 0.159,-1.427 0.01,-2.939 0,0 -0.253,-2.615 -0.559,-5.573 -0.931,-0.753 -1.949,-1.599 -3.034,-2.531 -5.974,-5.136 -10.418,-12.887 -6.73,-17.072 4.389,-4.979 9.767,5.616 11.605,13.993 0.558,2.544 0.73,4.169 1.036,5.587 1.674,1.507 2.726,2.418 3.361,2.95 0.19,0.127 0.395,0.275 0.606,0.438 -0.033,-0.317 -0.059,-0.617 -0.073,-0.888 l -0.001,0 c 0,0 -0.532,-2.804 1.543,-4.404 2.076,-1.599 4.089,-1.362 7.372,3.513 3.283,4.874 3.743,5.593 3.743,5.593 0,0 -0.049,-2.156 -0.429,-4.995 -0.379,-2.841 0.297,-7.051 4.124,-9.32 3.825,-2.27 4.67,0.718 5.49,2.41 0.822,1.691 5.081,8.725 6.106,11.031 1.025,2.308 2.823,4.516 2.823,4.516 0,0 -0.41,-2.464 -0.873,-4.823 -0.466,-2.36 -0.564,-5.695 -0.821,-9.39 -0.257,-3.695 0.565,-4.873 0.565,-4.873 1.413,-2.148 8.157,4.052 11.233,6.619 1.559,1.298 3.579,3.127 5.501,4.959"
             style="fill:#000000;fill-opacity:1;fill-rule:nonzero;stroke:none"
             id="path15313" />
        </g>
        <g
           id="g15315"
           transform="translate(212.3169,909.6733)"
           style="fill:#000000">
          <path
             inkscape:connector-curvature="0"
             d="m 0,0 c 0.019,0.019 0.044,0.027 0.031,0.06 -0.01,0.024 -0.042,0.031 -0.054,0.052 -0.012,0.018 -0.003,0.064 -0.003,0.084 0,0.025 0.004,0.044 -0.009,0.064 C -0.041,0.272 -0.059,0.301 -0.071,0.305 -0.099,0.312 -0.116,0.281 -0.129,0.264 -0.146,0.242 -0.163,0.229 -0.173,0.2 c -0.027,-0.084 -0.08,-0.215 0,-0.288 0.035,-0.032 0.098,-0.013 0.125,0.021 C -0.03,-0.046 -0.02,-0.019 0,0"
             style="fill:#000000;fill-opacity:1;fill-rule:nonzero;stroke:none"
             id="path15317" />
        </g>
        <g
           id="g15319"
           transform="translate(212.0513,914.7866)"
           style="fill:#000000">
          <path
             inkscape:connector-curvature="0"
             d="m 0,0 c -0.102,-0.294 -0.151,-0.604 -0.358,-0.707 -0.205,-0.102 -0.499,-0.327 -0.551,0.223 0.472,3.711 0.705,5.524 0.705,5.524 0,0 0.038,0.176 0.1,0.446 C -0.103,5.147 -0.093,4.282 -0.051,3.962 0.004,3.559 -0.307,2.99 -0.204,2.681 -0.102,2.372 0.001,2.269 -0.102,2.014 -0.204,1.756 -0.457,1.316 -0.305,1.126 c 0.15,-0.189 0.406,-0.292 0.254,-0.292 -0.151,0 -0.409,0.047 -0.409,-0.207 0,-0.254 0.256,-0.462 0.256,-0.462 0,0 0.305,0.131 0.204,-0.165 m -1.165,-12.07 c -0.006,-0.194 0.185,-0.607 0.143,-0.711 -0.04,-0.104 -0.07,-0.093 -0.07,-0.093 0,0 -0.066,-0.057 -0.068,-0.261 0,-0.206 -0.288,-0.121 -0.259,0.087 0.029,0.208 -0.068,0.716 -0.11,0.88 -0.04,0.164 0.11,0.291 0.11,0.291 0.231,0.106 0.261,0 0.254,-0.193 m -17.696,24.909 c -0.288,-0.744 -1.231,-5.233 -1.231,-5.233 0,0 -4.599,-5.16 -6.365,-6.414 -1.765,-1.254 1.982,5.554 3.44,7.645 1.456,2.09 3.334,3.642 3.796,4.104 0.463,0.462 0.647,0.641 0.36,-0.102 m 23.185,9.198 c 1.548,2.716 2.887,3.872 3.245,3.669 0.36,-0.206 0.354,-2.262 -1.488,-5.804 -1.844,-3.541 -5.187,-6.61 -5.187,-6.61 0.392,1.451 1.882,6.028 3.43,8.745 M 4.515,8.016 c 0.207,0.201 0.137,0.309 0.137,0.309 0,0 -0.207,0.101 -0.302,0.074 C 4.254,8.372 4.325,8.398 4.368,8.464 4.414,8.53 4.375,8.586 4.276,8.599 4.176,8.614 4.289,8.7 4.305,8.792 4.32,8.884 4.226,8.945 4.147,9.018 4.071,9.091 3.933,9.077 3.952,9.162 L 3.972,9.245 3.7,9.229 C 3.829,9.315 3.738,9.414 3.541,9.35 3.343,9.285 3.279,9.247 2.857,9.195 2.715,9.177 1.803,9.028 0.656,8.838 c 0.016,0.108 0.031,0.207 0.041,0.271 0.039,0.222 0.01,0.164 0.073,0.344 0.065,0.178 -0.06,0.284 0.065,0.42 0.127,0.134 0.103,0.46 -0.095,0.631 l -0.205,0.361 c 0,0 1.027,1.281 2.106,2.464 1.077,1.182 4.086,4.653 5.556,8.646 1.469,3.995 0.72,4.317 -0.628,5.065 -1.346,0.747 -3.183,0.357 -4.775,0.101 0,0 -2.295,-0.406 -2.846,-0.407 -0.551,-0.002 -0.845,-0.223 -0.769,-0.537 0.077,-0.315 -0.339,-0.667 -0.491,-1.057 -0.155,-0.392 -0.307,-0.873 -0.462,-1.233 -0.155,-0.359 -0.514,-1.182 -0.411,-1.131 0.103,0.053 0.361,0.235 0.411,0.104 0.051,-0.13 0.074,-0.393 -0.051,-0.731 0,0 -0.462,-1.321 -0.976,-2.555 C -3.315,18.361 -5.221,13.842 -5.884,12.61 -6.549,11.377 -7.269,9.889 -7.731,9.016 -8.192,8.144 -8.153,7.759 -8.8,7.619 -9.442,7.478 -9.867,7.434 -10.194,7.271 -10.57,7.083 -10.249,6.803 -10.66,6.66 c 0.049,-0.03 0.102,-0.067 0.143,-0.092 -0.113,-0.16 -0.09,-0.132 0.02,-0.284 -0.054,-0.042 -0.087,-0.11 -0.164,-0.148 0.044,-0.012 0.091,-0.047 0.162,-0.055 -0.042,-0.045 -0.061,-0.141 -0.134,-0.19 0.085,0.016 0.193,-0.016 0.278,-0.009 -0.098,-0.153 -0.079,-0.283 0.117,-0.335 0,0 0.351,-0.235 0.558,-0.332 0,0 -2.665,-4.52 -3.029,-5.287 -0.367,-0.767 -0.564,-0.778 -0.461,0.509 0.101,1.287 0.05,8.835 0.716,10.632 0.667,1.798 1.017,2.918 0.412,3.75 -0.18,0.243 -0.29,0.514 -0.422,0.783 -0.056,0.115 -0.112,0.18 -0.208,0.261 -0.102,0.089 -0.161,0.247 -0.296,0.296 -0.151,0.056 -0.389,0.008 -0.545,0.01 -0.043,0 -0.087,0 -0.13,-0.001 -0.201,-0.002 -0.406,-0.007 -0.606,0.015 -0.257,0.026 -0.413,0.066 -0.675,-0.006 -0.25,-0.07 -0.493,-0.157 -0.745,-0.225 -0.261,-0.07 -0.736,-0.223 -0.986,-0.052 -0.061,0.042 -0.092,0.108 -0.168,0.128 -0.117,0.03 -0.277,-0.059 -0.376,-0.111 -0.581,-0.315 -0.382,-0.103 -0.996,-0.051 -0.614,0.051 -1.026,-0.359 -3.59,-2.668 -2.568,-2.308 -5.059,-7.583 -5.543,-9.286 -0.484,-1.704 -1.327,-2.57 -0.513,-3.643 0.813,-1.075 2.162,-0.092 3.49,1.169 1.329,1.263 4.055,3.295 4.055,3.295 -0.058,-4.28 0.767,-10.775 1.024,-12.57 0.258,-1.796 3.631,-2.99 5.378,-2.791 1.748,0.198 2.814,4.177 3.943,6.382 1.076,2.104 3.311,6.246 3.514,6.625 -0.065,-0.429 -0.13,-0.872 -0.2,-1.339 0,0 -0.321,-4.398 -0.624,-9.211 0,0 -0.031,-1.107 0.171,-1.411 0.2,-0.303 0.165,-1.125 0.113,-1.59 -0.051,-0.467 -0.094,-1.968 -0.051,-2.686 0.045,-0.717 -0.407,-1.028 -0.46,-0.548 -0.03,0.272 -0.114,0.388 -0.107,0.545 -0.119,-2.269 -0.2,-4.244 -0.2,-5.418 0,-2.169 0.865,-2.559 1.127,-2.874 0.16,-0.192 0.241,0.234 0.667,-0.255 0,0 0.378,-0.309 1.025,-0.363 0.646,-0.053 0.727,-0.467 0.92,-0.357 0.194,0.111 0.138,0.436 0.431,0.501 0.291,0.065 0.585,0.012 0.855,-0.089 0.271,-0.103 0.572,0.017 0.698,-0.119 0.124,-0.139 0.174,-0.12 0.174,-0.12 0,0 0.154,0.233 0.258,0.752 0.103,0.519 0.228,0.966 0.278,1.994 0.05,0.981 0.079,2.729 0.125,5.259 0.002,0.04 0.002,0.078 0.003,0.117 0.009,0.181 0.062,0.506 0.312,0.531 0.347,0.033 0.203,-0.468 0.101,-1.052 -0.101,-0.585 -0.248,-1.373 -0.101,-1.668 0.146,-0.295 0.319,0.004 0.364,0.785 0.045,0.78 0.137,1.043 0.098,1.473 -0.04,0.429 -0.309,1.128 -0.153,1.538 0.153,0.411 0.049,0.563 0.409,0.411 0.359,-0.153 0.565,-0.205 0.565,-0.205 0,0 0.035,0.488 -0.309,0.667 -0.347,0.178 -0.259,0.417 -0.259,0.417 0,0 -0.669,-0.579 -0.665,-0.006 0.004,0.573 0.207,0.67 0.207,1.284 0,0.615 -0.362,0.557 -0.31,0.919 0.053,0.362 0.124,0.355 0.31,0.362 0,0 0.008,0.469 -0.156,0.616 -0.161,0.146 -0.46,0.081 -0.462,0.688 -0.001,0.606 0.002,1.219 0.01,1.83 0.002,0.021 0.064,0.427 0.504,0.815 0.453,0.4 0.146,0.498 -0.153,0.875 -0.3,0.376 0.151,0.77 0.205,1.486 l 0.052,0.718 c 0,0 0.274,0.222 0.461,0.022 0.185,-0.198 -0.103,-0.533 -0.052,-0.841 0.052,-0.309 0.023,-0.722 0.114,-0.721 0.091,0.002 0.14,-0.262 0.246,-0.357 0.107,-0.094 0.325,0.038 0.204,0.512 -0.12,0.473 0.207,0.771 0.053,0.72 -0.155,-0.053 -0.299,0.011 -0.053,0.307 0.247,0.296 0.036,0.349 0.095,0.765 0.059,0.414 0.009,0.465 0.009,0.465 0,0 -0.207,-0.833 -0.411,-0.103 -0.12,0.433 -0.043,0.572 0.05,0.83 l 0.001,-0.001 c 0.048,-0.018 0.052,-0.005 0.093,-0.042 0.024,-0.022 0.04,-0.054 0.073,-0.061 0.05,-0.01 0.168,0.06 0.204,0.094 0.039,0.037 0.021,0.05 0.038,0.101 0.008,0.024 0.045,0.058 0.053,0.082 0.022,0.073 -0.001,0.183 -0.093,0.196 -0.091,0.013 -0.112,-0.117 -0.19,-0.137 -0.079,-0.02 -0.045,0.031 -0.08,0.053 -0.005,0.003 -0.011,0.001 -0.016,0.004 0.033,0.14 0.061,0.309 0.072,0.542 0.05,1.045 0.461,1.57 0.514,2.444 0.05,0.875 0.203,1.958 0.203,2.208 l 0,0.936 c 0.242,0.039 0.47,0.084 0.667,0.141 1.842,0.517 3.168,1.614 3.168,1.614 0,0 0.109,0.083 -0.144,0.004 0,0 -0.642,-0.205 -0.253,0.126 0.391,0.329 0.491,0.436 0.491,0.436 0,0 -0.542,-0.177 -0.337,0.026"
             style="fill:#000000;fill-opacity:1;fill-rule:nonzero;stroke:none"
             id="path15321" />
        </g>
        <g
           id="g15323"
           transform="translate(212.2666,905.4912)"
           style="fill:#000000">
          <path
             inkscape:connector-curvature="0"
             d="m 0,0 -0.282,0.226 c 0,0 -0.239,-0.681 -0.057,-1.02 C -0.155,-1.131 0,0 0,0"
             style="fill:#000000;fill-opacity:1;fill-rule:nonzero;stroke:none"
             id="path15325" />
        </g>
        <g
           id="g15327"
           transform="translate(211.8052,907.5894)"
           style="fill:#000000">
          <path
             inkscape:connector-curvature="0"
             d="M 0,0 C 0.098,0.031 0.065,0.155 0.065,0.235 0.065,0.29 0.057,0.35 0.064,0.403 0.072,0.462 0.095,0.481 0.124,0.535 0.165,0.612 0.233,0.698 0.258,0.777 0.271,0.822 0.279,0.877 0.242,0.913 0.078,1.068 -0.117,0.695 -0.138,0.569 -0.155,0.466 -0.135,0.341 -0.135,0.235 -0.135,0.145 -0.152,-0.048 0,0"
             style="fill:#000000;fill-opacity:1;fill-rule:nonzero;stroke:none"
             id="path15329" />
        </g>
      </g>
    </g>
  </g>
</svg>
